<?xml version="1.0" encoding="UTF-8" standalone="no"?>
<!DOCTYPE svg PUBLIC "-//W3C//DTD SVG 1.1//EN"
 "http://www.w3.org/Graphics/SVG/1.1/DTD/svg11.dtd">
<!-- Generated by graphviz version 2.40.1 (20161225.0304)
 -->
<!-- Title: dependencies Pages: 1 -->
<svg width="1952pt" height="355pt"
 viewBox="0.00 0.00 1952.00 355.00" xmlns="http://www.w3.org/2000/svg" xmlns:xlink="http://www.w3.org/1999/xlink">
<g id="graph0" class="graph" transform="scale(1 1) rotate(0) translate(4 351)">
<title>dependencies</title>
<polygon fill="#ffffff" stroke="transparent" points="-4,4 -4,-351 1948,-351 1948,4 -4,4"/>
<text text-anchor="start" x="951.0091" y="-42.4" font-family="sans-serif" font-weight="bold" font-size="14.00" fill="#000000">Legend</text>
<polygon fill="#ffffb3" stroke="transparent" points="738,-10 738,-30 758,-30 758,-10 738,-10"/>
<text text-anchor="start" x="761.629" y="-15.4" font-family="sans-serif" font-size="14.00" fill="#000000"> &#160;Declarations</text>
<polygon fill="#8dd3c7" stroke="transparent" points="851,-10 851,-30 871,-30 871,-10 851,-10"/>
<text text-anchor="start" x="874.7251" y="-15.4" font-family="sans-serif" font-size="14.00" fill="#000000"> &#160;Module</text>
<polygon fill="#80b1d3" stroke="transparent" points="937,-10 937,-30 957,-30 957,-10 937,-10"/>
<text text-anchor="start" x="960.7812" y="-15.4" font-family="sans-serif" font-size="14.00" fill="#000000"> &#160;Bootstrap</text>
<polygon fill="#fdb462" stroke="transparent" points="1034,-10 1034,-30 1054,-30 1054,-10 1034,-10"/>
<text text-anchor="start" x="1057.6732" y="-15.4" font-family="sans-serif" font-size="14.00" fill="#000000"> &#160;Providers</text>
<polygon fill="#fb8072" stroke="transparent" points="1130,-10 1130,-30 1150,-30 1150,-10 1130,-10"/>
<text text-anchor="start" x="1153.7258" y="-15.4" font-family="sans-serif" font-size="14.00" fill="#000000"> &#160;Exports</text>
<g id="clust1" class="cluster">
<title>cluster_PropertyGridModule</title>
<polygon fill="none" stroke="#000000" stroke-dasharray="1,5" points="8,-70 8,-271 1590,-271 1590,-70 8,-70"/>
</g>
<g id="clust2" class="cluster">
<title>cluster_PropertyGridModule_declarations</title>
<polygon fill="none" stroke="#000000" points="16,-78 16,-130 1582,-130 1582,-78 16,-78"/>
</g>
<g id="clust13" class="cluster">
<title>cluster_PropertyGridModule_exports</title>
<polygon fill="none" stroke="#000000" points="660,-211 660,-263 1051,-263 1051,-211 660,-211"/>
</g>
<g id="clust16" class="cluster">
<title>cluster_ShowcaseModule</title>
<polygon fill="none" stroke="#000000" stroke-dasharray="1,5" points="1598,-138 1598,-339 1936,-339 1936,-138 1598,-138"/>
</g>
<g id="clust17" class="cluster">
<title>cluster_ShowcaseModule_declarations</title>
<polygon fill="none" stroke="#000000" points="1606,-146 1606,-198 1928,-198 1928,-146 1606,-146"/>
</g>
<g id="clust22" class="cluster">
<title>cluster_ShowcaseModule_bootstrap</title>
<polygon fill="none" stroke="#000000" points="1643,-279 1643,-331 1767,-331 1767,-279 1643,-279"/>
</g>
<!-- CustomComponent -->
<g id="node1" class="node">
<title>CustomComponent</title>
<polygon fill="#ffffb3" stroke="#000000" points="1574.3948,-122 1449.6052,-122 1449.6052,-86 1574.3948,-86 1574.3948,-122"/>
<text text-anchor="middle" x="1512" y="-99.8" font-family="Times,serif" font-size="14.00" fill="#000000">CustomComponent</text>
</g>
<!-- PropertyGridModule -->
<g id="node10" class="node">
<title>PropertyGridModule</title>
<polygon fill="#8dd3c7" stroke="#000000" points="931.9173,-190 928.9173,-194 907.9173,-194 904.9173,-190 798.0827,-190 798.0827,-154 931.9173,-154 931.9173,-190"/>
<text text-anchor="middle" x="865" y="-167.8" font-family="Times,serif" font-size="14.00" fill="#000000">PropertyGridModule</text>
</g>
<!-- CustomComponent&#45;&gt;PropertyGridModule -->
<g id="edge1" class="edge">
<title>CustomComponent&#45;&gt;PropertyGridModule</title>
<path fill="none" stroke="#000000" d="M1512,-122.1686C1512,-143.498 1512,-176 1512,-176 1512,-176 941.8035,-176 941.8035,-176"/>
<polygon fill="#000000" stroke="#000000" points="941.8035,-172.5001 931.8035,-176 941.8034,-179.5001 941.8035,-172.5001"/>
</g>
<!-- PropertyGridComponent -->
<g id="node2" class="node">
<title>PropertyGridComponent</title>
<polygon fill="#ffffb3" stroke="#000000" points="1431.6993,-122 1276.3007,-122 1276.3007,-86 1431.6993,-86 1431.6993,-122"/>
<text text-anchor="middle" x="1354" y="-99.8" font-family="Times,serif" font-size="14.00" fill="#000000">PropertyGridComponent</text>
</g>
<!-- PropertyGridComponent&#45;&gt;PropertyGridModule -->
<g id="edge2" class="edge">
<title>PropertyGridComponent&#45;&gt;PropertyGridModule</title>
<path fill="none" stroke="#000000" d="M1354,-122.1061C1354,-141.3391 1354,-169 1354,-169 1354,-169 941.7126,-169 941.7126,-169"/>
<polygon fill="#000000" stroke="#000000" points="941.7127,-165.5001 931.7126,-169 941.7126,-172.5001 941.7127,-165.5001"/>
</g>
<!-- PropertyItemTemplateDirective -->
<g id="node3" class="node">
<title>PropertyItemTemplateDirective</title>
<polygon fill="#ffffb3" stroke="#000000" points="1258.3165,-122 1063.6835,-122 1063.6835,-86 1258.3165,-86 1258.3165,-122"/>
<text text-anchor="middle" x="1161" y="-99.8" font-family="Times,serif" font-size="14.00" fill="#000000">PropertyItemTemplateDirective</text>
</g>
<!-- PropertyItemTemplateDirective&#45;&gt;PropertyGridModule -->
<g id="edge3" class="edge">
<title>PropertyItemTemplateDirective&#45;&gt;PropertyGridModule</title>
<path fill="none" stroke="#000000" d="M1161,-122.0336C1161,-139.0597 1161,-162 1161,-162 1161,-162 941.7973,-162 941.7973,-162"/>
<polygon fill="#000000" stroke="#000000" points="941.7973,-158.5001 931.7973,-162 941.7972,-165.5001 941.7973,-158.5001"/>
</g>
<!-- SimpleCheckboxComponent -->
<g id="node4" class="node">
<title>SimpleCheckboxComponent</title>
<polygon fill="#ffffb3" stroke="#000000" points="1045.7674,-122 868.2326,-122 868.2326,-86 1045.7674,-86 1045.7674,-122"/>
<text text-anchor="middle" x="957" y="-99.8" font-family="Times,serif" font-size="14.00" fill="#000000">SimpleCheckboxComponent</text>
</g>
<!-- SimpleCheckboxComponent&#45;&gt;PropertyGridModule -->
<g id="edge4" class="edge">
<title>SimpleCheckboxComponent&#45;&gt;PropertyGridModule</title>
<path fill="none" stroke="#000000" d="M899.9124,-122.2228C899.9124,-122.2228 899.9124,-143.7269 899.9124,-143.7269"/>
<polygon fill="#000000" stroke="#000000" points="896.4124,-143.7269 899.9124,-153.7269 903.4124,-143.727 896.4124,-143.7269"/>
</g>
<!-- SimpleColorComponent -->
<g id="node5" class="node">
<title>SimpleColorComponent</title>
<polygon fill="#ffffb3" stroke="#000000" points="850.3892,-122 697.6108,-122 697.6108,-86 850.3892,-86 850.3892,-122"/>
<text text-anchor="middle" x="774" y="-99.8" font-family="Times,serif" font-size="14.00" fill="#000000">SimpleColorComponent</text>
</g>
<!-- SimpleColorComponent&#45;&gt;PropertyGridModule -->
<g id="edge5" class="edge">
<title>SimpleColorComponent&#45;&gt;PropertyGridModule</title>
<path fill="none" stroke="#000000" d="M824.3682,-122.2228C824.3682,-122.2228 824.3682,-143.7269 824.3682,-143.7269"/>
<polygon fill="#000000" stroke="#000000" points="820.8682,-143.7269 824.3682,-153.7269 827.8682,-143.727 820.8682,-143.7269"/>
</g>
<!-- SimpleDateComponent -->
<g id="node6" class="node">
<title>SimpleDateComponent</title>
<polygon fill="#ffffb3" stroke="#000000" points="679.9284,-122 532.0716,-122 532.0716,-86 679.9284,-86 679.9284,-122"/>
<text text-anchor="middle" x="606" y="-99.8" font-family="Times,serif" font-size="14.00" fill="#000000">SimpleDateComponent</text>
</g>
<!-- SimpleDateComponent&#45;&gt;PropertyGridModule -->
<g id="edge6" class="edge">
<title>SimpleDateComponent&#45;&gt;PropertyGridModule</title>
<path fill="none" stroke="#000000" d="M673.7778,-122.0336C673.7778,-139.0597 673.7778,-162 673.7778,-162 673.7778,-162 788.1198,-162 788.1198,-162"/>
<polygon fill="#000000" stroke="#000000" points="788.1198,-165.5001 798.1198,-162 788.1197,-158.5001 788.1198,-165.5001"/>
</g>
<!-- SimpleLabelComponent -->
<g id="node7" class="node">
<title>SimpleLabelComponent</title>
<polygon fill="#ffffb3" stroke="#000000" points="514.3739,-122 361.6261,-122 361.6261,-86 514.3739,-86 514.3739,-122"/>
<text text-anchor="middle" x="438" y="-99.8" font-family="Times,serif" font-size="14.00" fill="#000000">SimpleLabelComponent</text>
</g>
<!-- SimpleLabelComponent&#45;&gt;PropertyGridModule -->
<g id="edge7" class="edge">
<title>SimpleLabelComponent&#45;&gt;PropertyGridModule</title>
<path fill="none" stroke="#000000" d="M438,-122.1061C438,-141.3391 438,-169 438,-169 438,-169 788.2813,-169 788.2813,-169"/>
<polygon fill="#000000" stroke="#000000" points="788.2813,-172.5001 798.2813,-169 788.2812,-165.5001 788.2813,-172.5001"/>
</g>
<!-- SimpleSelectComponent -->
<g id="node8" class="node">
<title>SimpleSelectComponent</title>
<polygon fill="#ffffb3" stroke="#000000" points="343.7091,-122 188.2909,-122 188.2909,-86 343.7091,-86 343.7091,-122"/>
<text text-anchor="middle" x="266" y="-99.8" font-family="Times,serif" font-size="14.00" fill="#000000">SimpleSelectComponent</text>
</g>
<!-- SimpleSelectComponent&#45;&gt;PropertyGridModule -->
<g id="edge8" class="edge">
<title>SimpleSelectComponent&#45;&gt;PropertyGridModule</title>
<path fill="none" stroke="#000000" d="M266,-122.1686C266,-143.498 266,-176 266,-176 266,-176 788.0307,-176 788.0307,-176"/>
<polygon fill="#000000" stroke="#000000" points="788.0307,-179.5001 798.0307,-176 788.0306,-172.5001 788.0307,-179.5001"/>
</g>
<!-- SimpleTextComponent -->
<g id="node9" class="node">
<title>SimpleTextComponent</title>
<polygon fill="#ffffb3" stroke="#000000" points="170.1596,-122 23.8404,-122 23.8404,-86 170.1596,-86 170.1596,-122"/>
<text text-anchor="middle" x="97" y="-99.8" font-family="Times,serif" font-size="14.00" fill="#000000">SimpleTextComponent</text>
</g>
<!-- SimpleTextComponent&#45;&gt;PropertyGridModule -->
<g id="edge9" class="edge">
<title>SimpleTextComponent&#45;&gt;PropertyGridModule</title>
<path fill="none" stroke="#000000" d="M97,-122.3228C97,-145.6602 97,-183 97,-183 97,-183 788.1885,-183 788.1885,-183"/>
<polygon fill="#000000" stroke="#000000" points="788.1886,-186.5001 798.1885,-183 788.1885,-179.5001 788.1886,-186.5001"/>
</g>
<!-- PropertyGridComponent  -->
<g id="node11" class="node">
<title>PropertyGridComponent </title>
<polygon fill="#fb8072" stroke="#000000" points="1043.1995,-255 884.8005,-255 884.8005,-219 1043.1995,-219 1043.1995,-255"/>
<text text-anchor="middle" x="964" y="-232.8" font-family="Times,serif" font-size="14.00" fill="#000000">PropertyGridComponent </text>
</g>
<!-- PropertyGridModule&#45;&gt;PropertyGridComponent  -->
<g id="edge10" class="edge">
<title>PropertyGridModule&#45;&gt;PropertyGridComponent </title>
<path fill="none" stroke="#000000" stroke-dasharray="5,2" d="M908.1794,-190.1061C908.1794,-190.1061 908.1794,-208.991 908.1794,-208.991"/>
<polygon fill="#000000" stroke="#000000" points="904.6794,-208.9909 908.1794,-218.991 911.6794,-208.991 904.6794,-208.9909"/>
</g>
<!-- PropertyItemTemplateDirective  -->
<g id="node12" class="node">
<title>PropertyItemTemplateDirective </title>
<polygon fill="#fb8072" stroke="#000000" points="866.3167,-255 667.6833,-255 667.6833,-219 866.3167,-219 866.3167,-255"/>
<text text-anchor="middle" x="767" y="-232.8" font-family="Times,serif" font-size="14.00" fill="#000000">PropertyItemTemplateDirective </text>
</g>
<!-- PropertyGridModule&#45;&gt;PropertyItemTemplateDirective  -->
<g id="edge11" class="edge">
<title>PropertyGridModule&#45;&gt;PropertyItemTemplateDirective </title>
<path fill="none" stroke="#000000" stroke-dasharray="5,2" d="M832.225,-190.1061C832.225,-190.1061 832.225,-208.991 832.225,-208.991"/>
<polygon fill="#000000" stroke="#000000" points="828.725,-208.9909 832.225,-218.991 835.725,-208.991 828.725,-208.9909"/>
</g>
<!-- ShowcaseModule -->
<g id="node15" class="node">
<title>ShowcaseModule</title>
<polygon fill="#8dd3c7" stroke="#000000" points="1762.5284,-255 1759.5284,-259 1738.5284,-259 1735.5284,-255 1647.4716,-255 1647.4716,-219 1762.5284,-219 1762.5284,-255"/>
<text text-anchor="middle" x="1705" y="-232.8" font-family="Times,serif" font-size="14.00" fill="#000000">ShowcaseModule</text>
</g>
<!-- PropertyGridModule&#45;&gt;ShowcaseModule -->
<g id="edge14" class="edge">
<title>PropertyGridModule&#45;&gt;ShowcaseModule</title>
<path fill="none" stroke="#000000" d="M931.8944,-183C986.521,-183 1054.7377,-183 1054.7377,-183 1054.7377,-183 1054.7377,-237 1054.7377,-237 1054.7377,-237 1637.2936,-237 1637.2936,-237"/>
<polygon fill="#000000" stroke="#000000" points="1637.2936,-240.5001 1647.2936,-237 1637.2935,-233.5001 1637.2936,-240.5001"/>
</g>
<!-- AppComponent -->
<g id="node13" class="node">
<title>AppComponent</title>
<polygon fill="#ffffb3" stroke="#000000" points="1919.9399,-190 1814.0601,-190 1814.0601,-154 1919.9399,-154 1919.9399,-190"/>
<text text-anchor="middle" x="1867" y="-167.8" font-family="Times,serif" font-size="14.00" fill="#000000">AppComponent</text>
</g>
<!-- AppComponent&#45;&gt;ShowcaseModule -->
<g id="edge12" class="edge">
<title>AppComponent&#45;&gt;ShowcaseModule</title>
<path fill="none" stroke="#000000" d="M1867,-190.1061C1867,-209.3391 1867,-237 1867,-237 1867,-237 1772.5713,-237 1772.5713,-237"/>
<polygon fill="#000000" stroke="#000000" points="1772.5713,-233.5001 1762.5713,-237 1772.5712,-240.5001 1772.5713,-233.5001"/>
</g>
<!-- SimpleTextEditorComponent -->
<g id="node14" class="node">
<title>SimpleTextEditorComponent</title>
<polygon fill="#ffffb3" stroke="#000000" points="1795.6539,-190 1614.3461,-190 1614.3461,-154 1795.6539,-154 1795.6539,-190"/>
<text text-anchor="middle" x="1705" y="-167.8" font-family="Times,serif" font-size="14.00" fill="#000000">SimpleTextEditorComponent</text>
</g>
<!-- SimpleTextEditorComponent&#45;&gt;ShowcaseModule -->
<g id="edge13" class="edge">
<title>SimpleTextEditorComponent&#45;&gt;ShowcaseModule</title>
<path fill="none" stroke="#000000" d="M1705,-190.1061C1705,-190.1061 1705,-208.991 1705,-208.991"/>
<polygon fill="#000000" stroke="#000000" points="1701.5001,-208.9909 1705,-218.991 1708.5001,-208.991 1701.5001,-208.9909"/>
</g>
<!-- AppComponent  -->
<g id="node16" class="node">
<title>AppComponent </title>
<polygon fill="#80b1d3" stroke="#000000" points="1759.439,-323 1650.561,-323 1650.561,-287 1759.439,-287 1759.439,-323"/>
<text text-anchor="middle" x="1705" y="-300.8" font-family="Times,serif" font-size="14.00" fill="#000000">AppComponent </text>
</g>
<!-- ShowcaseModule&#45;&gt;AppComponent  -->
<g id="edge15" class="edge">
<title>ShowcaseModule&#45;&gt;AppComponent </title>
<path fill="none" stroke="#000000" stroke-dasharray="1,5" d="M1705,-255.2228C1705,-255.2228 1705,-276.7269 1705,-276.7269"/>
<polygon fill="#000000" stroke="#000000" points="1701.5001,-276.7269 1705,-286.7269 1708.5001,-276.727 1701.5001,-276.7269"/>
</g>
</g>
</svg>
