<?xml version="1.0" encoding="UTF-8" standalone="no"?>
<!DOCTYPE svg PUBLIC "-//W3C//DTD SVG 1.1//EN"
 "http://www.w3.org/Graphics/SVG/1.1/DTD/svg11.dtd">
<!-- Generated by graphviz version 2.40.1 (20161225.0304)
 -->
<!-- Title: dependencies Pages: 1 -->
<svg width="700pt" height="355pt"
 viewBox="0.00 0.00 700.00 355.00" xmlns="http://www.w3.org/2000/svg" xmlns:xlink="http://www.w3.org/1999/xlink">
<g id="graph0" class="graph" transform="scale(1 1) rotate(0) translate(4 351)">
<title>dependencies</title>
<polygon fill="#ffffff" stroke="transparent" points="-4,4 -4,-351 696,-351 696,4 -4,4"/>
<text text-anchor="start" x="325.0091" y="-42.4" font-family="sans-serif" font-weight="bold" font-size="14.00" fill="#000000">Legend</text>
<polygon fill="#ffffb3" stroke="transparent" points="112,-10 112,-30 132,-30 132,-10 112,-10"/>
<text text-anchor="start" x="135.629" y="-15.4" font-family="sans-serif" font-size="14.00" fill="#000000"> &#160;Declarations</text>
<polygon fill="#8dd3c7" stroke="transparent" points="225,-10 225,-30 245,-30 245,-10 225,-10"/>
<text text-anchor="start" x="248.7251" y="-15.4" font-family="sans-serif" font-size="14.00" fill="#000000"> &#160;Module</text>
<polygon fill="#80b1d3" stroke="transparent" points="311,-10 311,-30 331,-30 331,-10 311,-10"/>
<text text-anchor="start" x="334.7812" y="-15.4" font-family="sans-serif" font-size="14.00" fill="#000000"> &#160;Bootstrap</text>
<polygon fill="#fdb462" stroke="transparent" points="408,-10 408,-30 428,-30 428,-10 408,-10"/>
<text text-anchor="start" x="431.6732" y="-15.4" font-family="sans-serif" font-size="14.00" fill="#000000"> &#160;Providers</text>
<polygon fill="#fb8072" stroke="transparent" points="504,-10 504,-30 524,-30 524,-10 504,-10"/>
<text text-anchor="start" x="527.7258" y="-15.4" font-family="sans-serif" font-size="14.00" fill="#000000"> &#160;Exports</text>
<g id="clust1" class="cluster">
<title>cluster_PropertyGridModule</title>
<polygon fill="none" stroke="#000000" stroke-dasharray="1,5" points="8,-70 8,-271 338,-271 338,-70 8,-70"/>
</g>
<g id="clust2" class="cluster">
<title>cluster_PropertyGridModule_declarations</title>
<polygon fill="none" stroke="#000000" points="16,-78 16,-130 330,-130 330,-78 16,-78"/>
</g>
<g id="clust6" class="cluster">
<title>cluster_PropertyGridModule_exports</title>
<polygon fill="none" stroke="#000000" points="156,-211 156,-263 330,-263 330,-211 156,-211"/>
</g>
<g id="clust9" class="cluster">
<title>cluster_ShowcaseModule</title>
<polygon fill="none" stroke="#000000" stroke-dasharray="1,5" points="346,-138 346,-339 684,-339 684,-138 346,-138"/>
</g>
<g id="clust10" class="cluster">
<title>cluster_ShowcaseModule_declarations</title>
<polygon fill="none" stroke="#000000" points="354,-146 354,-198 676,-198 676,-146 354,-146"/>
</g>
<g id="clust15" class="cluster">
<title>cluster_ShowcaseModule_bootstrap</title>
<polygon fill="none" stroke="#000000" points="391,-279 391,-331 515,-331 515,-279 391,-279"/>
</g>
<!-- CustomComponent -->
<g id="node1" class="node">
<title>CustomComponent</title>
<polygon fill="#ffffb3" stroke="#000000" points="322.3948,-122 197.6052,-122 197.6052,-86 322.3948,-86 322.3948,-122"/>
<text text-anchor="middle" x="260" y="-99.8" font-family="Times,serif" font-size="14.00" fill="#000000">CustomComponent</text>
</g>
<!-- PropertyGridModule -->
<g id="node3" class="node">
<title>PropertyGridModule</title>
<polygon fill="#8dd3c7" stroke="#000000" points="317.9173,-190 314.9173,-194 293.9173,-194 290.9173,-190 184.0827,-190 184.0827,-154 317.9173,-154 317.9173,-190"/>
<text text-anchor="middle" x="251" y="-167.8" font-family="Times,serif" font-size="14.00" fill="#000000">PropertyGridModule</text>
</g>
<!-- CustomComponent&#45;&gt;PropertyGridModule -->
<g id="edge1" class="edge">
<title>CustomComponent&#45;&gt;PropertyGridModule</title>
<path fill="none" stroke="#000000" d="M257.6305,-122.2228C257.6305,-122.2228 257.6305,-143.7269 257.6305,-143.7269"/>
<polygon fill="#000000" stroke="#000000" points="254.1305,-143.7269 257.6305,-153.7269 261.1305,-143.727 254.1305,-143.7269"/>
</g>
<!-- PropertyGridComponent -->
<g id="node2" class="node">
<title>PropertyGridComponent</title>
<polygon fill="#ffffb3" stroke="#000000" points="179.6993,-122 24.3007,-122 24.3007,-86 179.6993,-86 179.6993,-122"/>
<text text-anchor="middle" x="102" y="-99.8" font-family="Times,serif" font-size="14.00" fill="#000000">PropertyGridComponent</text>
</g>
<!-- PropertyGridComponent&#45;&gt;PropertyGridModule -->
<g id="edge2" class="edge">
<title>PropertyGridComponent&#45;&gt;PropertyGridModule</title>
<path fill="none" stroke="#000000" d="M179.6601,-104C186.5138,-104 190.9221,-104 190.9221,-104 190.9221,-104 190.9221,-143.7772 190.9221,-143.7772"/>
<polygon fill="#000000" stroke="#000000" points="187.4222,-143.7772 190.9221,-153.7772 194.4222,-143.7773 187.4222,-143.7772"/>
</g>
<!-- PropertyGridComponent  -->
<g id="node4" class="node">
<title>PropertyGridComponent </title>
<polygon fill="#fb8072" stroke="#000000" points="322.1995,-255 163.8005,-255 163.8005,-219 322.1995,-219 322.1995,-255"/>
<text text-anchor="middle" x="243" y="-232.8" font-family="Times,serif" font-size="14.00" fill="#000000">PropertyGridComponent </text>
</g>
<!-- PropertyGridModule&#45;&gt;PropertyGridComponent  -->
<g id="edge3" class="edge">
<title>PropertyGridModule&#45;&gt;PropertyGridComponent </title>
<path fill="none" stroke="#000000" stroke-dasharray="5,2" d="M251,-190.1061C251,-190.1061 251,-208.991 251,-208.991"/>
<polygon fill="#000000" stroke="#000000" points="247.5001,-208.9909 251,-218.991 254.5001,-208.991 247.5001,-208.9909"/>
</g>
<!-- ShowcaseModule -->
<g id="node7" class="node">
<title>ShowcaseModule</title>
<polygon fill="#8dd3c7" stroke="#000000" points="510.5284,-255 507.5284,-259 486.5284,-259 483.5284,-255 395.4716,-255 395.4716,-219 510.5284,-219 510.5284,-255"/>
<text text-anchor="middle" x="453" y="-232.8" font-family="Times,serif" font-size="14.00" fill="#000000">ShowcaseModule</text>
</g>
<!-- PropertyGridModule&#45;&gt;ShowcaseModule -->
<g id="edge6" class="edge">
<title>PropertyGridModule&#45;&gt;ShowcaseModule</title>
<path fill="none" stroke="#000000" d="M317.8408,-172C331.7645,-172 342.3103,-172 342.3103,-172 342.3103,-172 342.3103,-237 342.3103,-237 342.3103,-237 385.3857,-237 385.3857,-237"/>
<polygon fill="#000000" stroke="#000000" points="385.3857,-240.5001 395.3857,-237 385.3857,-233.5001 385.3857,-240.5001"/>
</g>
<!-- AppComponent -->
<g id="node5" class="node">
<title>AppComponent</title>
<polygon fill="#ffffb3" stroke="#000000" points="667.9399,-190 562.0601,-190 562.0601,-154 667.9399,-154 667.9399,-190"/>
<text text-anchor="middle" x="615" y="-167.8" font-family="Times,serif" font-size="14.00" fill="#000000">AppComponent</text>
</g>
<!-- AppComponent&#45;&gt;ShowcaseModule -->
<g id="edge4" class="edge">
<title>AppComponent&#45;&gt;ShowcaseModule</title>
<path fill="none" stroke="#000000" d="M615,-190.1061C615,-209.3391 615,-237 615,-237 615,-237 520.5713,-237 520.5713,-237"/>
<polygon fill="#000000" stroke="#000000" points="520.5713,-233.5001 510.5713,-237 520.5712,-240.5001 520.5713,-233.5001"/>
</g>
<!-- SimpleTextEditorComponent -->
<g id="node6" class="node">
<title>SimpleTextEditorComponent</title>
<polygon fill="#ffffb3" stroke="#000000" points="543.6539,-190 362.3461,-190 362.3461,-154 543.6539,-154 543.6539,-190"/>
<text text-anchor="middle" x="453" y="-167.8" font-family="Times,serif" font-size="14.00" fill="#000000">SimpleTextEditorComponent</text>
</g>
<!-- SimpleTextEditorComponent&#45;&gt;ShowcaseModule -->
<g id="edge5" class="edge">
<title>SimpleTextEditorComponent&#45;&gt;ShowcaseModule</title>
<path fill="none" stroke="#000000" d="M453,-190.1061C453,-190.1061 453,-208.991 453,-208.991"/>
<polygon fill="#000000" stroke="#000000" points="449.5001,-208.9909 453,-218.991 456.5001,-208.991 449.5001,-208.9909"/>
</g>
<!-- AppComponent  -->
<g id="node8" class="node">
<title>AppComponent </title>
<polygon fill="#80b1d3" stroke="#000000" points="507.439,-323 398.561,-323 398.561,-287 507.439,-287 507.439,-323"/>
<text text-anchor="middle" x="453" y="-300.8" font-family="Times,serif" font-size="14.00" fill="#000000">AppComponent </text>
</g>
<!-- ShowcaseModule&#45;&gt;AppComponent  -->
<g id="edge7" class="edge">
<title>ShowcaseModule&#45;&gt;AppComponent </title>
<path fill="none" stroke="#000000" stroke-dasharray="1,5" d="M453,-255.2228C453,-255.2228 453,-276.7269 453,-276.7269"/>
<polygon fill="#000000" stroke="#000000" points="449.5001,-276.7269 453,-286.7269 456.5001,-276.727 449.5001,-276.7269"/>
</g>
</g>
</svg>
