<?xml version="1.0" encoding="UTF-8" standalone="no"?>
<!DOCTYPE svg PUBLIC "-//W3C//DTD SVG 1.1//EN"
 "http://www.w3.org/Graphics/SVG/1.1/DTD/svg11.dtd">
<!-- Generated by graphviz version 2.40.1 (20161225.0304)
 -->
<!-- Title: dependencies Pages: 1 -->
<svg width="912pt" height="355pt"
 viewBox="0.00 0.00 912.00 355.00" xmlns="http://www.w3.org/2000/svg" xmlns:xlink="http://www.w3.org/1999/xlink">
<g id="graph0" class="graph" transform="scale(1 1) rotate(0) translate(4 351)">
<title>dependencies</title>
<polygon fill="#ffffff" stroke="transparent" points="-4,4 -4,-351 908,-351 908,4 -4,4"/>
<text text-anchor="start" x="431.0091" y="-42.4" font-family="sans-serif" font-weight="bold" font-size="14.00" fill="#000000">Legend</text>
<polygon fill="#ffffb3" stroke="transparent" points="218,-10 218,-30 238,-30 238,-10 218,-10"/>
<text text-anchor="start" x="241.629" y="-15.4" font-family="sans-serif" font-size="14.00" fill="#000000"> &#160;Declarations</text>
<polygon fill="#8dd3c7" stroke="transparent" points="331,-10 331,-30 351,-30 351,-10 331,-10"/>
<text text-anchor="start" x="354.7251" y="-15.4" font-family="sans-serif" font-size="14.00" fill="#000000"> &#160;Module</text>
<polygon fill="#80b1d3" stroke="transparent" points="417,-10 417,-30 437,-30 437,-10 417,-10"/>
<text text-anchor="start" x="440.7812" y="-15.4" font-family="sans-serif" font-size="14.00" fill="#000000"> &#160;Bootstrap</text>
<polygon fill="#fdb462" stroke="transparent" points="514,-10 514,-30 534,-30 534,-10 514,-10"/>
<text text-anchor="start" x="537.6732" y="-15.4" font-family="sans-serif" font-size="14.00" fill="#000000"> &#160;Providers</text>
<polygon fill="#fb8072" stroke="transparent" points="610,-10 610,-30 630,-30 630,-10 610,-10"/>
<text text-anchor="start" x="633.7258" y="-15.4" font-family="sans-serif" font-size="14.00" fill="#000000"> &#160;Exports</text>
<g id="clust1" class="cluster">
<title>cluster_PropertyGridModule</title>
<polygon fill="none" stroke="#000000" stroke-dasharray="1,5" points="8,-70 8,-271 550,-271 550,-70 8,-70"/>
</g>
<g id="clust2" class="cluster">
<title>cluster_PropertyGridModule_declarations</title>
<polygon fill="none" stroke="#000000" points="16,-78 16,-130 542,-130 542,-78 16,-78"/>
</g>
<g id="clust7" class="cluster">
<title>cluster_PropertyGridModule_exports</title>
<polygon fill="none" stroke="#000000" points="84,-211 84,-263 475,-263 475,-211 84,-211"/>
</g>
<g id="clust10" class="cluster">
<title>cluster_ShowcaseModule</title>
<polygon fill="none" stroke="#000000" stroke-dasharray="1,5" points="558,-138 558,-339 896,-339 896,-138 558,-138"/>
</g>
<g id="clust11" class="cluster">
<title>cluster_ShowcaseModule_declarations</title>
<polygon fill="none" stroke="#000000" points="566,-146 566,-198 888,-198 888,-146 566,-146"/>
</g>
<g id="clust16" class="cluster">
<title>cluster_ShowcaseModule_bootstrap</title>
<polygon fill="none" stroke="#000000" points="603,-279 603,-331 727,-331 727,-279 603,-279"/>
</g>
<!-- CustomComponent -->
<g id="node1" class="node">
<title>CustomComponent</title>
<polygon fill="#ffffb3" stroke="#000000" points="534.3948,-122 409.6052,-122 409.6052,-86 534.3948,-86 534.3948,-122"/>
<text text-anchor="middle" x="472" y="-99.8" font-family="Times,serif" font-size="14.00" fill="#000000">CustomComponent</text>
</g>
<!-- PropertyGridModule -->
<g id="node4" class="node">
<title>PropertyGridModule</title>
<polygon fill="#8dd3c7" stroke="#000000" points="417.9173,-190 414.9173,-194 393.9173,-194 390.9173,-190 284.0827,-190 284.0827,-154 417.9173,-154 417.9173,-190"/>
<text text-anchor="middle" x="351" y="-167.8" font-family="Times,serif" font-size="14.00" fill="#000000">PropertyGridModule</text>
</g>
<!-- CustomComponent&#45;&gt;PropertyGridModule -->
<g id="edge1" class="edge">
<title>CustomComponent&#45;&gt;PropertyGridModule</title>
<path fill="none" stroke="#000000" d="M413.6305,-122.2228C413.6305,-122.2228 413.6305,-143.7269 413.6305,-143.7269"/>
<polygon fill="#000000" stroke="#000000" points="410.1305,-143.7269 413.6305,-153.7269 417.1305,-143.727 410.1305,-143.7269"/>
</g>
<!-- PropertyGridComponent -->
<g id="node2" class="node">
<title>PropertyGridComponent</title>
<polygon fill="#ffffb3" stroke="#000000" points="391.6993,-122 236.3007,-122 236.3007,-86 391.6993,-86 391.6993,-122"/>
<text text-anchor="middle" x="314" y="-99.8" font-family="Times,serif" font-size="14.00" fill="#000000">PropertyGridComponent</text>
</g>
<!-- PropertyGridComponent&#45;&gt;PropertyGridModule -->
<g id="edge2" class="edge">
<title>PropertyGridComponent&#45;&gt;PropertyGridModule</title>
<path fill="none" stroke="#000000" d="M337.9457,-122.2228C337.9457,-122.2228 337.9457,-143.7269 337.9457,-143.7269"/>
<polygon fill="#000000" stroke="#000000" points="334.4457,-143.7269 337.9457,-153.7269 341.4457,-143.727 334.4457,-143.7269"/>
</g>
<!-- PropertyItemTemplateDirective -->
<g id="node3" class="node">
<title>PropertyItemTemplateDirective</title>
<polygon fill="#ffffb3" stroke="#000000" points="218.3165,-122 23.6835,-122 23.6835,-86 218.3165,-86 218.3165,-122"/>
<text text-anchor="middle" x="121" y="-99.8" font-family="Times,serif" font-size="14.00" fill="#000000">PropertyItemTemplateDirective</text>
</g>
<!-- PropertyItemTemplateDirective&#45;&gt;PropertyGridModule -->
<g id="edge3" class="edge">
<title>PropertyItemTemplateDirective&#45;&gt;PropertyGridModule</title>
<path fill="none" stroke="#000000" d="M155.125,-122.2228C155.125,-142.3652 155.125,-172 155.125,-172 155.125,-172 274.1388,-172 274.1388,-172"/>
<polygon fill="#000000" stroke="#000000" points="274.1388,-175.5001 284.1388,-172 274.1387,-168.5001 274.1388,-175.5001"/>
</g>
<!-- PropertyGridComponent  -->
<g id="node5" class="node">
<title>PropertyGridComponent </title>
<polygon fill="#fb8072" stroke="#000000" points="467.1995,-255 308.8005,-255 308.8005,-219 467.1995,-219 467.1995,-255"/>
<text text-anchor="middle" x="388" y="-232.8" font-family="Times,serif" font-size="14.00" fill="#000000">PropertyGridComponent </text>
</g>
<!-- PropertyGridModule&#45;&gt;PropertyGridComponent  -->
<g id="edge4" class="edge">
<title>PropertyGridModule&#45;&gt;PropertyGridComponent </title>
<path fill="none" stroke="#000000" stroke-dasharray="5,2" d="M363.1794,-190.1061C363.1794,-190.1061 363.1794,-208.991 363.1794,-208.991"/>
<polygon fill="#000000" stroke="#000000" points="359.6794,-208.9909 363.1794,-218.991 366.6794,-208.991 359.6794,-208.9909"/>
</g>
<!-- PropertyItemTemplateDirective  -->
<g id="node6" class="node">
<title>PropertyItemTemplateDirective </title>
<polygon fill="#fb8072" stroke="#000000" points="290.3167,-255 91.6833,-255 91.6833,-219 290.3167,-219 290.3167,-255"/>
<text text-anchor="middle" x="191" y="-232.8" font-family="Times,serif" font-size="14.00" fill="#000000">PropertyItemTemplateDirective </text>
</g>
<!-- PropertyGridModule&#45;&gt;PropertyItemTemplateDirective  -->
<g id="edge5" class="edge">
<title>PropertyGridModule&#45;&gt;PropertyItemTemplateDirective </title>
<path fill="none" stroke="#000000" stroke-dasharray="5,2" d="M299.4043,-190.1061C299.4043,-209.3391 299.4043,-237 299.4043,-237 299.4043,-237 298.4801,-237 298.4801,-237"/>
<polygon fill="#000000" stroke="#000000" points="300.1619,-233.5001 290.1618,-237 300.1618,-240.5001 300.1619,-233.5001"/>
</g>
<!-- ShowcaseModule -->
<g id="node9" class="node">
<title>ShowcaseModule</title>
<polygon fill="#8dd3c7" stroke="#000000" points="722.5284,-255 719.5284,-259 698.5284,-259 695.5284,-255 607.4716,-255 607.4716,-219 722.5284,-219 722.5284,-255"/>
<text text-anchor="middle" x="665" y="-232.8" font-family="Times,serif" font-size="14.00" fill="#000000">ShowcaseModule</text>
</g>
<!-- PropertyGridModule&#45;&gt;ShowcaseModule -->
<g id="edge8" class="edge">
<title>PropertyGridModule&#45;&gt;ShowcaseModule</title>
<path fill="none" stroke="#000000" d="M418.0575,-172C457.9687,-172 500.8985,-172 500.8985,-172 500.8985,-172 500.8985,-237 500.8985,-237 500.8985,-237 597.1439,-237 597.1439,-237"/>
<polygon fill="#000000" stroke="#000000" points="597.144,-240.5001 607.1439,-237 597.1439,-233.5001 597.144,-240.5001"/>
</g>
<!-- AppComponent -->
<g id="node7" class="node">
<title>AppComponent</title>
<polygon fill="#ffffb3" stroke="#000000" points="879.9399,-190 774.0601,-190 774.0601,-154 879.9399,-154 879.9399,-190"/>
<text text-anchor="middle" x="827" y="-167.8" font-family="Times,serif" font-size="14.00" fill="#000000">AppComponent</text>
</g>
<!-- AppComponent&#45;&gt;ShowcaseModule -->
<g id="edge6" class="edge">
<title>AppComponent&#45;&gt;ShowcaseModule</title>
<path fill="none" stroke="#000000" d="M827,-190.1061C827,-209.3391 827,-237 827,-237 827,-237 732.5713,-237 732.5713,-237"/>
<polygon fill="#000000" stroke="#000000" points="732.5713,-233.5001 722.5713,-237 732.5712,-240.5001 732.5713,-233.5001"/>
</g>
<!-- SimpleTextEditorComponent -->
<g id="node8" class="node">
<title>SimpleTextEditorComponent</title>
<polygon fill="#ffffb3" stroke="#000000" points="755.6539,-190 574.3461,-190 574.3461,-154 755.6539,-154 755.6539,-190"/>
<text text-anchor="middle" x="665" y="-167.8" font-family="Times,serif" font-size="14.00" fill="#000000">SimpleTextEditorComponent</text>
</g>
<!-- SimpleTextEditorComponent&#45;&gt;ShowcaseModule -->
<g id="edge7" class="edge">
<title>SimpleTextEditorComponent&#45;&gt;ShowcaseModule</title>
<path fill="none" stroke="#000000" d="M665,-190.1061C665,-190.1061 665,-208.991 665,-208.991"/>
<polygon fill="#000000" stroke="#000000" points="661.5001,-208.9909 665,-218.991 668.5001,-208.991 661.5001,-208.9909"/>
</g>
<!-- AppComponent  -->
<g id="node10" class="node">
<title>AppComponent </title>
<polygon fill="#80b1d3" stroke="#000000" points="719.439,-323 610.561,-323 610.561,-287 719.439,-287 719.439,-323"/>
<text text-anchor="middle" x="665" y="-300.8" font-family="Times,serif" font-size="14.00" fill="#000000">AppComponent </text>
</g>
<!-- ShowcaseModule&#45;&gt;AppComponent  -->
<g id="edge9" class="edge">
<title>ShowcaseModule&#45;&gt;AppComponent </title>
<path fill="none" stroke="#000000" stroke-dasharray="1,5" d="M665,-255.2228C665,-255.2228 665,-276.7269 665,-276.7269"/>
<polygon fill="#000000" stroke="#000000" points="661.5001,-276.7269 665,-286.7269 668.5001,-276.727 661.5001,-276.7269"/>
</g>
</g>
</svg>
