<?xml version="1.0" encoding="UTF-8" standalone="no"?>
<!DOCTYPE svg PUBLIC "-//W3C//DTD SVG 1.1//EN"
 "http://www.w3.org/Graphics/SVG/1.1/DTD/svg11.dtd">
<!-- Generated by graphviz version 2.40.1 (20161225.0304)
 -->
<!-- Title: dependencies Pages: 1 -->
<svg width="1606pt" height="284pt"
 viewBox="0.00 0.00 1606.00 284.00" xmlns="http://www.w3.org/2000/svg" xmlns:xlink="http://www.w3.org/1999/xlink">
<g id="graph0" class="graph" transform="scale(1 1) rotate(0) translate(4 280)">
<title>dependencies</title>
<polygon fill="#ffffff" stroke="transparent" points="-4,4 -4,-280 1602,-280 1602,4 -4,4"/>
<text text-anchor="start" x="778.0091" y="-42.4" font-family="sans-serif" font-weight="bold" font-size="14.00" fill="#000000">Legend</text>
<polygon fill="#ffffb3" stroke="transparent" points="565,-10 565,-30 585,-30 585,-10 565,-10"/>
<text text-anchor="start" x="588.629" y="-15.4" font-family="sans-serif" font-size="14.00" fill="#000000"> &#160;Declarations</text>
<polygon fill="#8dd3c7" stroke="transparent" points="678,-10 678,-30 698,-30 698,-10 678,-10"/>
<text text-anchor="start" x="701.7251" y="-15.4" font-family="sans-serif" font-size="14.00" fill="#000000"> &#160;Module</text>
<polygon fill="#80b1d3" stroke="transparent" points="764,-10 764,-30 784,-30 784,-10 764,-10"/>
<text text-anchor="start" x="787.7812" y="-15.4" font-family="sans-serif" font-size="14.00" fill="#000000"> &#160;Bootstrap</text>
<polygon fill="#fdb462" stroke="transparent" points="861,-10 861,-30 881,-30 881,-10 861,-10"/>
<text text-anchor="start" x="884.6732" y="-15.4" font-family="sans-serif" font-size="14.00" fill="#000000"> &#160;Providers</text>
<polygon fill="#fb8072" stroke="transparent" points="957,-10 957,-30 977,-30 977,-10 957,-10"/>
<text text-anchor="start" x="980.7258" y="-15.4" font-family="sans-serif" font-size="14.00" fill="#000000"> &#160;Exports</text>
<g id="clust1" class="cluster">
<title>cluster_PropertyGridModule</title>
<polygon fill="none" stroke="#000000" stroke-dasharray="1,5" points="8,-70 8,-268 1590,-268 1590,-70 8,-70"/>
</g>
<g id="clust2" class="cluster">
<title>cluster_PropertyGridModule_declarations</title>
<polygon fill="none" stroke="#000000" points="16,-78 16,-130 1582,-130 1582,-78 16,-78"/>
</g>
<g id="clust13" class="cluster">
<title>cluster_PropertyGridModule_exports</title>
<polygon fill="none" stroke="#000000" points="569,-208 569,-260 960,-260 960,-208 569,-208"/>
</g>
<!-- CustomComponent -->
<g id="node1" class="node">
<title>CustomComponent</title>
<polygon fill="#ffffb3" stroke="#000000" points="1574.3948,-122 1449.6052,-122 1449.6052,-86 1574.3948,-86 1574.3948,-122"/>
<text text-anchor="middle" x="1512" y="-99.8" font-family="Times,serif" font-size="14.00" fill="#000000">CustomComponent</text>
</g>
<!-- PropertyGridModule -->
<g id="node10" class="node">
<title>PropertyGridModule</title>
<polygon fill="#8dd3c7" stroke="#000000" points="840.9173,-187 837.9173,-191 816.9173,-191 813.9173,-187 707.0827,-187 707.0827,-151 840.9173,-151 840.9173,-187"/>
<text text-anchor="middle" x="774" y="-164.8" font-family="Times,serif" font-size="14.00" fill="#000000">PropertyGridModule</text>
</g>
<!-- CustomComponent&#45;&gt;PropertyGridModule -->
<g id="edge1" class="edge">
<title>CustomComponent&#45;&gt;PropertyGridModule</title>
<path fill="none" stroke="#000000" d="M1512,-122.0109C1512,-144.4852 1512,-180 1512,-180 1512,-180 850.7942,-180 850.7942,-180"/>
<polygon fill="#000000" stroke="#000000" points="850.7942,-176.5001 840.7942,-180 850.7942,-183.5001 850.7942,-176.5001"/>
</g>
<!-- PropertyGridComponent -->
<g id="node2" class="node">
<title>PropertyGridComponent</title>
<polygon fill="#ffffb3" stroke="#000000" points="1431.6993,-122 1276.3007,-122 1276.3007,-86 1431.6993,-86 1431.6993,-122"/>
<text text-anchor="middle" x="1354" y="-99.8" font-family="Times,serif" font-size="14.00" fill="#000000">PropertyGridComponent</text>
</g>
<!-- PropertyGridComponent&#45;&gt;PropertyGridModule -->
<g id="edge2" class="edge">
<title>PropertyGridComponent&#45;&gt;PropertyGridModule</title>
<path fill="none" stroke="#000000" d="M1354,-122.1289C1354,-142.5724 1354,-173 1354,-173 1354,-173 850.8164,-173 850.8164,-173"/>
<polygon fill="#000000" stroke="#000000" points="850.8165,-169.5001 840.8164,-173 850.8164,-176.5001 850.8165,-169.5001"/>
</g>
<!-- PropertyItemTemplateDirective -->
<g id="node3" class="node">
<title>PropertyItemTemplateDirective</title>
<polygon fill="#ffffb3" stroke="#000000" points="1258.3165,-122 1063.6835,-122 1063.6835,-86 1258.3165,-86 1258.3165,-122"/>
<text text-anchor="middle" x="1161" y="-99.8" font-family="Times,serif" font-size="14.00" fill="#000000">PropertyItemTemplateDirective</text>
</g>
<!-- PropertyItemTemplateDirective&#45;&gt;PropertyGridModule -->
<g id="edge3" class="edge">
<title>PropertyItemTemplateDirective&#45;&gt;PropertyGridModule</title>
<path fill="none" stroke="#000000" d="M1161,-122.2667C1161,-140.5552 1161,-166 1161,-166 1161,-166 850.9684,-166 850.9684,-166"/>
<polygon fill="#000000" stroke="#000000" points="850.9685,-162.5001 840.9684,-166 850.9684,-169.5001 850.9685,-162.5001"/>
</g>
<!-- SimpleCheckboxComponent -->
<g id="node4" class="node">
<title>SimpleCheckboxComponent</title>
<polygon fill="#ffffb3" stroke="#000000" points="1045.7674,-122 868.2326,-122 868.2326,-86 1045.7674,-86 1045.7674,-122"/>
<text text-anchor="middle" x="957" y="-99.8" font-family="Times,serif" font-size="14.00" fill="#000000">SimpleCheckboxComponent</text>
</g>
<!-- SimpleCheckboxComponent&#45;&gt;PropertyGridModule -->
<g id="edge4" class="edge">
<title>SimpleCheckboxComponent&#45;&gt;PropertyGridModule</title>
<path fill="none" stroke="#000000" d="M910.233,-122.0091C910.233,-138.0494 910.233,-159 910.233,-159 910.233,-159 850.9192,-159 850.9192,-159"/>
<polygon fill="#000000" stroke="#000000" points="850.9192,-155.5001 840.9192,-159 850.9192,-162.5001 850.9192,-155.5001"/>
</g>
<!-- SimpleColorComponent -->
<g id="node5" class="node">
<title>SimpleColorComponent</title>
<polygon fill="#ffffb3" stroke="#000000" points="850.3892,-122 697.6108,-122 697.6108,-86 850.3892,-86 850.3892,-122"/>
<text text-anchor="middle" x="774" y="-99.8" font-family="Times,serif" font-size="14.00" fill="#000000">SimpleColorComponent</text>
</g>
<!-- SimpleColorComponent&#45;&gt;PropertyGridModule -->
<g id="edge5" class="edge">
<title>SimpleColorComponent&#45;&gt;PropertyGridModule</title>
<path fill="none" stroke="#000000" d="M774,-122.1061C774,-122.1061 774,-140.991 774,-140.991"/>
<polygon fill="#000000" stroke="#000000" points="770.5001,-140.9909 774,-150.991 777.5001,-140.991 770.5001,-140.9909"/>
</g>
<!-- SimpleDateComponent -->
<g id="node6" class="node">
<title>SimpleDateComponent</title>
<polygon fill="#ffffb3" stroke="#000000" points="679.9284,-122 532.0716,-122 532.0716,-86 679.9284,-86 679.9284,-122"/>
<text text-anchor="middle" x="606" y="-99.8" font-family="Times,serif" font-size="14.00" fill="#000000">SimpleDateComponent</text>
</g>
<!-- SimpleDateComponent&#45;&gt;PropertyGridModule -->
<g id="edge6" class="edge">
<title>SimpleDateComponent&#45;&gt;PropertyGridModule</title>
<path fill="none" stroke="#000000" d="M628.2778,-122.0091C628.2778,-138.0494 628.2778,-159 628.2778,-159 628.2778,-159 697.1099,-159 697.1099,-159"/>
<polygon fill="#000000" stroke="#000000" points="697.1099,-162.5001 707.1099,-159 697.1098,-155.5001 697.1099,-162.5001"/>
</g>
<!-- SimpleLabelComponent -->
<g id="node7" class="node">
<title>SimpleLabelComponent</title>
<polygon fill="#ffffb3" stroke="#000000" points="514.3739,-122 361.6261,-122 361.6261,-86 514.3739,-86 514.3739,-122"/>
<text text-anchor="middle" x="438" y="-99.8" font-family="Times,serif" font-size="14.00" fill="#000000">SimpleLabelComponent</text>
</g>
<!-- SimpleLabelComponent&#45;&gt;PropertyGridModule -->
<g id="edge7" class="edge">
<title>SimpleLabelComponent&#45;&gt;PropertyGridModule</title>
<path fill="none" stroke="#000000" d="M438,-122.2667C438,-140.5552 438,-166 438,-166 438,-166 697.2155,-166 697.2155,-166"/>
<polygon fill="#000000" stroke="#000000" points="697.2155,-169.5001 707.2155,-166 697.2155,-162.5001 697.2155,-169.5001"/>
</g>
<!-- SimpleSelectComponent -->
<g id="node8" class="node">
<title>SimpleSelectComponent</title>
<polygon fill="#ffffb3" stroke="#000000" points="343.7091,-122 188.2909,-122 188.2909,-86 343.7091,-86 343.7091,-122"/>
<text text-anchor="middle" x="266" y="-99.8" font-family="Times,serif" font-size="14.00" fill="#000000">SimpleSelectComponent</text>
</g>
<!-- SimpleSelectComponent&#45;&gt;PropertyGridModule -->
<g id="edge8" class="edge">
<title>SimpleSelectComponent&#45;&gt;PropertyGridModule</title>
<path fill="none" stroke="#000000" d="M266,-122.1289C266,-142.5724 266,-173 266,-173 266,-173 697.0655,-173 697.0655,-173"/>
<polygon fill="#000000" stroke="#000000" points="697.0655,-176.5001 707.0655,-173 697.0655,-169.5001 697.0655,-176.5001"/>
</g>
<!-- SimpleTextComponent -->
<g id="node9" class="node">
<title>SimpleTextComponent</title>
<polygon fill="#ffffb3" stroke="#000000" points="170.1596,-122 23.8404,-122 23.8404,-86 170.1596,-86 170.1596,-122"/>
<text text-anchor="middle" x="97" y="-99.8" font-family="Times,serif" font-size="14.00" fill="#000000">SimpleTextComponent</text>
</g>
<!-- SimpleTextComponent&#45;&gt;PropertyGridModule -->
<g id="edge9" class="edge">
<title>SimpleTextComponent&#45;&gt;PropertyGridModule</title>
<path fill="none" stroke="#000000" d="M97,-122.0109C97,-144.4852 97,-180 97,-180 97,-180 697.2338,-180 697.2338,-180"/>
<polygon fill="#000000" stroke="#000000" points="697.2339,-183.5001 707.2338,-180 697.2338,-176.5001 697.2339,-183.5001"/>
</g>
<!-- PropertyGridComponent  -->
<g id="node11" class="node">
<title>PropertyGridComponent </title>
<polygon fill="#fb8072" stroke="#000000" points="952.1995,-252 793.8005,-252 793.8005,-216 952.1995,-216 952.1995,-252"/>
<text text-anchor="middle" x="873" y="-229.8" font-family="Times,serif" font-size="14.00" fill="#000000">PropertyGridComponent </text>
</g>
<!-- PropertyGridModule&#45;&gt;PropertyGridComponent  -->
<g id="edge10" class="edge">
<title>PropertyGridModule&#45;&gt;PropertyGridComponent </title>
<path fill="none" stroke="#000000" stroke-dasharray="5,2" d="M817.1794,-187.1061C817.1794,-187.1061 817.1794,-205.991 817.1794,-205.991"/>
<polygon fill="#000000" stroke="#000000" points="813.6794,-205.9909 817.1794,-215.991 820.6794,-205.991 813.6794,-205.9909"/>
</g>
<!-- PropertyItemTemplateDirective  -->
<g id="node12" class="node">
<title>PropertyItemTemplateDirective </title>
<polygon fill="#fb8072" stroke="#000000" points="775.3167,-252 576.6833,-252 576.6833,-216 775.3167,-216 775.3167,-252"/>
<text text-anchor="middle" x="676" y="-229.8" font-family="Times,serif" font-size="14.00" fill="#000000">PropertyItemTemplateDirective </text>
</g>
<!-- PropertyGridModule&#45;&gt;PropertyItemTemplateDirective  -->
<g id="edge11" class="edge">
<title>PropertyGridModule&#45;&gt;PropertyItemTemplateDirective </title>
<path fill="none" stroke="#000000" stroke-dasharray="5,2" d="M741.225,-187.1061C741.225,-187.1061 741.225,-205.991 741.225,-205.991"/>
<polygon fill="#000000" stroke="#000000" points="737.725,-205.9909 741.225,-215.991 744.725,-205.991 737.725,-205.9909"/>
</g>
</g>
</svg>
