<?xml version="1.0" encoding="UTF-8" standalone="no"?>
<!DOCTYPE svg PUBLIC "-//W3C//DTD SVG 1.1//EN"
 "http://www.w3.org/Graphics/SVG/1.1/DTD/svg11.dtd">
<!-- Generated by graphviz version 2.40.1 (20161225.0304)
 -->
<!-- Title: dependencies Pages: 1 -->
<svg width="566pt" height="284pt"
 viewBox="0.00 0.00 566.00 284.00" xmlns="http://www.w3.org/2000/svg" xmlns:xlink="http://www.w3.org/1999/xlink">
<g id="graph0" class="graph" transform="scale(1 1) rotate(0) translate(4 280)">
<title>dependencies</title>
<polygon fill="#ffffff" stroke="transparent" points="-4,4 -4,-280 562,-280 562,4 -4,4"/>
<text text-anchor="start" x="258.0091" y="-42.4" font-family="sans-serif" font-weight="bold" font-size="14.00" fill="#000000">Legend</text>
<polygon fill="#ffffb3" stroke="transparent" points="45,-10 45,-30 65,-30 65,-10 45,-10"/>
<text text-anchor="start" x="68.629" y="-15.4" font-family="sans-serif" font-size="14.00" fill="#000000"> &#160;Declarations</text>
<polygon fill="#8dd3c7" stroke="transparent" points="158,-10 158,-30 178,-30 178,-10 158,-10"/>
<text text-anchor="start" x="181.7251" y="-15.4" font-family="sans-serif" font-size="14.00" fill="#000000"> &#160;Module</text>
<polygon fill="#80b1d3" stroke="transparent" points="244,-10 244,-30 264,-30 264,-10 244,-10"/>
<text text-anchor="start" x="267.7812" y="-15.4" font-family="sans-serif" font-size="14.00" fill="#000000"> &#160;Bootstrap</text>
<polygon fill="#fdb462" stroke="transparent" points="341,-10 341,-30 361,-30 361,-10 341,-10"/>
<text text-anchor="start" x="364.6732" y="-15.4" font-family="sans-serif" font-size="14.00" fill="#000000"> &#160;Providers</text>
<polygon fill="#fb8072" stroke="transparent" points="437,-10 437,-30 457,-30 457,-10 437,-10"/>
<text text-anchor="start" x="460.7258" y="-15.4" font-family="sans-serif" font-size="14.00" fill="#000000"> &#160;Exports</text>
<g id="clust1" class="cluster">
<title>cluster_PropertyGridModule</title>
<polygon fill="none" stroke="#000000" stroke-dasharray="1,5" points="8,-70 8,-268 550,-268 550,-70 8,-70"/>
</g>
<g id="clust2" class="cluster">
<title>cluster_PropertyGridModule_declarations</title>
<polygon fill="none" stroke="#000000" points="16,-78 16,-130 542,-130 542,-78 16,-78"/>
</g>
<g id="clust7" class="cluster">
<title>cluster_PropertyGridModule_exports</title>
<polygon fill="none" stroke="#000000" points="84,-208 84,-260 475,-260 475,-208 84,-208"/>
</g>
<!-- CustomComponent -->
<g id="node1" class="node">
<title>CustomComponent</title>
<polygon fill="#ffffb3" stroke="#000000" points="534.3948,-122 409.6052,-122 409.6052,-86 534.3948,-86 534.3948,-122"/>
<text text-anchor="middle" x="472" y="-99.8" font-family="Times,serif" font-size="14.00" fill="#000000">CustomComponent</text>
</g>
<!-- PropertyGridModule -->
<g id="node4" class="node">
<title>PropertyGridModule</title>
<polygon fill="#8dd3c7" stroke="#000000" points="380.9173,-187 377.9173,-191 356.9173,-191 353.9173,-187 247.0827,-187 247.0827,-151 380.9173,-151 380.9173,-187"/>
<text text-anchor="middle" x="314" y="-164.8" font-family="Times,serif" font-size="14.00" fill="#000000">PropertyGridModule</text>
</g>
<!-- CustomComponent&#45;&gt;PropertyGridModule -->
<g id="edge1" class="edge">
<title>CustomComponent&#45;&gt;PropertyGridModule</title>
<path fill="none" stroke="#000000" d="M438.4511,-122.1061C438.4511,-141.3391 438.4511,-169 438.4511,-169 438.4511,-169 390.9613,-169 390.9613,-169"/>
<polygon fill="#000000" stroke="#000000" points="390.9613,-165.5001 380.9613,-169 390.9613,-172.5001 390.9613,-165.5001"/>
</g>
<!-- PropertyGridComponent -->
<g id="node2" class="node">
<title>PropertyGridComponent</title>
<polygon fill="#ffffb3" stroke="#000000" points="391.6993,-122 236.3007,-122 236.3007,-86 391.6993,-86 391.6993,-122"/>
<text text-anchor="middle" x="314" y="-99.8" font-family="Times,serif" font-size="14.00" fill="#000000">PropertyGridComponent</text>
</g>
<!-- PropertyGridComponent&#45;&gt;PropertyGridModule -->
<g id="edge2" class="edge">
<title>PropertyGridComponent&#45;&gt;PropertyGridModule</title>
<path fill="none" stroke="#000000" d="M314,-122.1061C314,-122.1061 314,-140.991 314,-140.991"/>
<polygon fill="#000000" stroke="#000000" points="310.5001,-140.9909 314,-150.991 317.5001,-140.991 310.5001,-140.9909"/>
</g>
<!-- PropertyItemTemplateDirective -->
<g id="node3" class="node">
<title>PropertyItemTemplateDirective</title>
<polygon fill="#ffffb3" stroke="#000000" points="218.3165,-122 23.6835,-122 23.6835,-86 218.3165,-86 218.3165,-122"/>
<text text-anchor="middle" x="121" y="-99.8" font-family="Times,serif" font-size="14.00" fill="#000000">PropertyItemTemplateDirective</text>
</g>
<!-- PropertyItemTemplateDirective&#45;&gt;PropertyGridModule -->
<g id="edge3" class="edge">
<title>PropertyItemTemplateDirective&#45;&gt;PropertyGridModule</title>
<path fill="none" stroke="#000000" d="M155.125,-122.1061C155.125,-141.3391 155.125,-169 155.125,-169 155.125,-169 237.0832,-169 237.0832,-169"/>
<polygon fill="#000000" stroke="#000000" points="237.0832,-172.5001 247.0832,-169 237.0831,-165.5001 237.0832,-172.5001"/>
</g>
<!-- PropertyGridComponent  -->
<g id="node5" class="node">
<title>PropertyGridComponent </title>
<polygon fill="#fb8072" stroke="#000000" points="467.1995,-252 308.8005,-252 308.8005,-216 467.1995,-216 467.1995,-252"/>
<text text-anchor="middle" x="388" y="-229.8" font-family="Times,serif" font-size="14.00" fill="#000000">PropertyGridComponent </text>
</g>
<!-- PropertyGridModule&#45;&gt;PropertyGridComponent  -->
<g id="edge4" class="edge">
<title>PropertyGridModule&#45;&gt;PropertyGridComponent </title>
<path fill="none" stroke="#000000" stroke-dasharray="5,2" d="M344.6794,-187.1061C344.6794,-187.1061 344.6794,-205.991 344.6794,-205.991"/>
<polygon fill="#000000" stroke="#000000" points="341.1794,-205.9909 344.6794,-215.991 348.1794,-205.991 341.1794,-205.9909"/>
</g>
<!-- PropertyItemTemplateDirective  -->
<g id="node6" class="node">
<title>PropertyItemTemplateDirective </title>
<polygon fill="#fb8072" stroke="#000000" points="290.3167,-252 91.6833,-252 91.6833,-216 290.3167,-216 290.3167,-252"/>
<text text-anchor="middle" x="191" y="-229.8" font-family="Times,serif" font-size="14.00" fill="#000000">PropertyItemTemplateDirective </text>
</g>
<!-- PropertyGridModule&#45;&gt;PropertyItemTemplateDirective  -->
<g id="edge5" class="edge">
<title>PropertyGridModule&#45;&gt;PropertyItemTemplateDirective </title>
<path fill="none" stroke="#000000" stroke-dasharray="5,2" d="M268.725,-187.1061C268.725,-187.1061 268.725,-205.991 268.725,-205.991"/>
<polygon fill="#000000" stroke="#000000" points="265.225,-205.9909 268.725,-215.991 272.225,-205.991 265.225,-205.9909"/>
</g>
</g>
</svg>
