<?xml version="1.0" encoding="UTF-8" standalone="no"?>
<!DOCTYPE svg PUBLIC "-//W3C//DTD SVG 1.1//EN"
 "http://www.w3.org/Graphics/SVG/1.1/DTD/svg11.dtd">
<!-- Generated by graphviz version 2.40.1 (20161225.0304)
 -->
<!-- Title: dependencies Pages: 1 -->
<svg width="504pt" height="284pt"
 viewBox="0.00 0.00 504.00 284.00" xmlns="http://www.w3.org/2000/svg" xmlns:xlink="http://www.w3.org/1999/xlink">
<g id="graph0" class="graph" transform="scale(1 1) rotate(0) translate(4 280)">
<title>dependencies</title>
<polygon fill="#ffffff" stroke="transparent" points="-4,4 -4,-280 500,-280 500,4 -4,4"/>
<text text-anchor="start" x="227.0091" y="-42.4" font-family="sans-serif" font-weight="bold" font-size="14.00" fill="#000000">Legend</text>
<polygon fill="#ffffb3" stroke="transparent" points="14,-10 14,-30 34,-30 34,-10 14,-10"/>
<text text-anchor="start" x="37.629" y="-15.4" font-family="sans-serif" font-size="14.00" fill="#000000"> &#160;Declarations</text>
<polygon fill="#8dd3c7" stroke="transparent" points="127,-10 127,-30 147,-30 147,-10 127,-10"/>
<text text-anchor="start" x="150.7251" y="-15.4" font-family="sans-serif" font-size="14.00" fill="#000000"> &#160;Module</text>
<polygon fill="#80b1d3" stroke="transparent" points="213,-10 213,-30 233,-30 233,-10 213,-10"/>
<text text-anchor="start" x="236.7812" y="-15.4" font-family="sans-serif" font-size="14.00" fill="#000000"> &#160;Bootstrap</text>
<polygon fill="#fdb462" stroke="transparent" points="310,-10 310,-30 330,-30 330,-10 310,-10"/>
<text text-anchor="start" x="333.6732" y="-15.4" font-family="sans-serif" font-size="14.00" fill="#000000"> &#160;Providers</text>
<polygon fill="#fb8072" stroke="transparent" points="406,-10 406,-30 426,-30 426,-10 406,-10"/>
<text text-anchor="start" x="429.7258" y="-15.4" font-family="sans-serif" font-size="14.00" fill="#000000"> &#160;Exports</text>
<g id="clust1" class="cluster">
<title>cluster_PropertyGridModule</title>
<polygon fill="none" stroke="#000000" stroke-dasharray="1,5" points="83,-70 83,-268 413,-268 413,-70 83,-70"/>
</g>
<g id="clust2" class="cluster">
<title>cluster_PropertyGridModule_declarations</title>
<polygon fill="none" stroke="#000000" points="91,-78 91,-130 405,-130 405,-78 91,-78"/>
</g>
<g id="clust6" class="cluster">
<title>cluster_PropertyGridModule_exports</title>
<polygon fill="none" stroke="#000000" points="161,-208 161,-260 335,-260 335,-208 161,-208"/>
</g>
<!-- CustomComponent -->
<g id="node1" class="node">
<title>CustomComponent</title>
<polygon fill="#ffffb3" stroke="#000000" points="397.3948,-122 272.6052,-122 272.6052,-86 397.3948,-86 397.3948,-122"/>
<text text-anchor="middle" x="335" y="-99.8" font-family="Times,serif" font-size="14.00" fill="#000000">CustomComponent</text>
</g>
<!-- PropertyGridModule -->
<g id="node3" class="node">
<title>PropertyGridModule</title>
<polygon fill="#8dd3c7" stroke="#000000" points="314.9173,-187 311.9173,-191 290.9173,-191 287.9173,-187 181.0827,-187 181.0827,-151 314.9173,-151 314.9173,-187"/>
<text text-anchor="middle" x="248" y="-164.8" font-family="Times,serif" font-size="14.00" fill="#000000">PropertyGridModule</text>
</g>
<!-- CustomComponent&#45;&gt;PropertyGridModule -->
<g id="edge1" class="edge">
<title>CustomComponent&#45;&gt;PropertyGridModule</title>
<path fill="none" stroke="#000000" d="M293.6305,-122.1061C293.6305,-122.1061 293.6305,-140.991 293.6305,-140.991"/>
<polygon fill="#000000" stroke="#000000" points="290.1305,-140.9909 293.6305,-150.991 297.1305,-140.991 290.1305,-140.9909"/>
</g>
<!-- PropertyGridComponent -->
<g id="node2" class="node">
<title>PropertyGridComponent</title>
<polygon fill="#ffffb3" stroke="#000000" points="254.6993,-122 99.3007,-122 99.3007,-86 254.6993,-86 254.6993,-122"/>
<text text-anchor="middle" x="177" y="-99.8" font-family="Times,serif" font-size="14.00" fill="#000000">PropertyGridComponent</text>
</g>
<!-- PropertyGridComponent&#45;&gt;PropertyGridModule -->
<g id="edge2" class="edge">
<title>PropertyGridComponent&#45;&gt;PropertyGridModule</title>
<path fill="none" stroke="#000000" d="M217.9457,-122.1061C217.9457,-122.1061 217.9457,-140.991 217.9457,-140.991"/>
<polygon fill="#000000" stroke="#000000" points="214.4457,-140.9909 217.9457,-150.991 221.4457,-140.991 214.4457,-140.9909"/>
</g>
<!-- PropertyGridComponent  -->
<g id="node4" class="node">
<title>PropertyGridComponent </title>
<polygon fill="#fb8072" stroke="#000000" points="327.1995,-252 168.8005,-252 168.8005,-216 327.1995,-216 327.1995,-252"/>
<text text-anchor="middle" x="248" y="-229.8" font-family="Times,serif" font-size="14.00" fill="#000000">PropertyGridComponent </text>
</g>
<!-- PropertyGridModule&#45;&gt;PropertyGridComponent  -->
<g id="edge3" class="edge">
<title>PropertyGridModule&#45;&gt;PropertyGridComponent </title>
<path fill="none" stroke="#000000" stroke-dasharray="5,2" d="M248,-187.1061C248,-187.1061 248,-205.991 248,-205.991"/>
<polygon fill="#000000" stroke="#000000" points="244.5001,-205.9909 248,-215.991 251.5001,-205.991 244.5001,-205.9909"/>
</g>
</g>
</svg>
