<?xml version="1.0" encoding="UTF-8" standalone="no"?>
<!DOCTYPE svg PUBLIC "-//W3C//DTD SVG 1.1//EN"
 "http://www.w3.org/Graphics/SVG/1.1/DTD/svg11.dtd">
<!-- Generated by graphviz version 2.40.1 (20161225.0304)
 -->
<!-- Title: dependencies Pages: 1 -->
<svg width="504pt" height="284pt"
 viewBox="0.00 0.00 504.00 284.00" xmlns="http://www.w3.org/2000/svg" xmlns:xlink="http://www.w3.org/1999/xlink">
<g id="graph0" class="graph" transform="scale(1 1) rotate(0) translate(4 280)">
<title>dependencies</title>
<polygon fill="#ffffff" stroke="transparent" points="-4,4 -4,-280 500,-280 500,4 -4,4"/>
<text text-anchor="start" x="227.0091" y="-42.4" font-family="sans-serif" font-weight="bold" font-size="14.00" fill="#000000">Legend</text>
<polygon fill="#ffffb3" stroke="transparent" points="14,-10 14,-30 34,-30 34,-10 14,-10"/>
<text text-anchor="start" x="37.629" y="-15.4" font-family="sans-serif" font-size="14.00" fill="#000000"> &#160;Declarations</text>
<polygon fill="#8dd3c7" stroke="transparent" points="127,-10 127,-30 147,-30 147,-10 127,-10"/>
<text text-anchor="start" x="150.7251" y="-15.4" font-family="sans-serif" font-size="14.00" fill="#000000"> &#160;Module</text>
<polygon fill="#80b1d3" stroke="transparent" points="213,-10 213,-30 233,-30 233,-10 213,-10"/>
<text text-anchor="start" x="236.7812" y="-15.4" font-family="sans-serif" font-size="14.00" fill="#000000"> &#160;Bootstrap</text>
<polygon fill="#fdb462" stroke="transparent" points="310,-10 310,-30 330,-30 330,-10 310,-10"/>
<text text-anchor="start" x="333.6732" y="-15.4" font-family="sans-serif" font-size="14.00" fill="#000000"> &#160;Providers</text>
<polygon fill="#fb8072" stroke="transparent" points="406,-10 406,-30 426,-30 426,-10 406,-10"/>
<text text-anchor="start" x="429.7258" y="-15.4" font-family="sans-serif" font-size="14.00" fill="#000000"> &#160;Exports</text>
<g id="clust1" class="cluster">
<title>cluster_PropertyGridModule</title>
<polygon fill="none" stroke="#000000" stroke-dasharray="1,5" points="38.5,-70 38.5,-268 457.5,-268 457.5,-70 38.5,-70"/>
</g>
<g id="clust2" class="cluster">
<title>cluster_PropertyGridModule_declarations</title>
<polygon fill="none" stroke="#000000" points="46.5,-78 46.5,-130 449.5,-130 449.5,-78 46.5,-78"/>
</g>
<g id="clust6" class="cluster">
<title>cluster_PropertyGridModule_exports</title>
<polygon fill="none" stroke="#000000" points="146.5,-208 146.5,-260 320.5,-260 320.5,-208 146.5,-208"/>
</g>
<!-- DynamicComponentLoadDirective -->
<g id="node1" class="node">
<title>DynamicComponentLoadDirective</title>
<polygon fill="#ffffb3" stroke="#000000" points="441.5,-122 227.5,-122 227.5,-86 441.5,-86 441.5,-122"/>
<text text-anchor="middle" x="334.5" y="-99.8" font-family="Times,serif" font-size="14.00" fill="#000000">DynamicComponentLoadDirective</text>
</g>
<!-- PropertyGridModule -->
<g id="node3" class="node">
<title>PropertyGridModule</title>
<polygon fill="#8dd3c7" stroke="#000000" points="300.4173,-187 297.4173,-191 276.4173,-191 273.4173,-187 166.5827,-187 166.5827,-151 300.4173,-151 300.4173,-187"/>
<text text-anchor="middle" x="233.5" y="-164.8" font-family="Times,serif" font-size="14.00" fill="#000000">PropertyGridModule</text>
</g>
<!-- DynamicComponentLoadDirective&#45;&gt;PropertyGridModule -->
<g id="edge1" class="edge">
<title>DynamicComponentLoadDirective&#45;&gt;PropertyGridModule</title>
<path fill="none" stroke="#000000" d="M263.9793,-122.1061C263.9793,-122.1061 263.9793,-140.991 263.9793,-140.991"/>
<polygon fill="#000000" stroke="#000000" points="260.4794,-140.9909 263.9793,-150.991 267.4794,-140.991 260.4794,-140.9909"/>
</g>
<!-- PropertyGridComponent -->
<g id="node2" class="node">
<title>PropertyGridComponent</title>
<polygon fill="#ffffb3" stroke="#000000" points="210.1993,-122 54.8007,-122 54.8007,-86 210.1993,-86 210.1993,-122"/>
<text text-anchor="middle" x="132.5" y="-99.8" font-family="Times,serif" font-size="14.00" fill="#000000">PropertyGridComponent</text>
</g>
<!-- PropertyGridComponent&#45;&gt;PropertyGridModule -->
<g id="edge2" class="edge">
<title>PropertyGridComponent&#45;&gt;PropertyGridModule</title>
<path fill="none" stroke="#000000" d="M188.4457,-122.1061C188.4457,-122.1061 188.4457,-140.991 188.4457,-140.991"/>
<polygon fill="#000000" stroke="#000000" points="184.9457,-140.9909 188.4457,-150.991 191.9457,-140.991 184.9457,-140.9909"/>
</g>
<!-- PropertyGridComponent  -->
<g id="node4" class="node">
<title>PropertyGridComponent </title>
<polygon fill="#fb8072" stroke="#000000" points="312.6995,-252 154.3005,-252 154.3005,-216 312.6995,-216 312.6995,-252"/>
<text text-anchor="middle" x="233.5" y="-229.8" font-family="Times,serif" font-size="14.00" fill="#000000">PropertyGridComponent </text>
</g>
<!-- PropertyGridModule&#45;&gt;PropertyGridComponent  -->
<g id="edge3" class="edge">
<title>PropertyGridModule&#45;&gt;PropertyGridComponent </title>
<path fill="none" stroke="#000000" stroke-dasharray="5,2" d="M233.5,-187.1061C233.5,-187.1061 233.5,-205.991 233.5,-205.991"/>
<polygon fill="#000000" stroke="#000000" points="230.0001,-205.9909 233.5,-215.991 237.0001,-205.991 230.0001,-205.9909"/>
</g>
</g>
</svg>
