<?xml version="1.0" encoding="UTF-8" standalone="no"?>
<!DOCTYPE svg PUBLIC "-//W3C//DTD SVG 1.1//EN"
 "http://www.w3.org/Graphics/SVG/1.1/DTD/svg11.dtd">
<!-- Generated by graphviz version 2.40.1 (20161225.0304)
 -->
<!-- Title: dependencies Pages: 1 -->
<svg width="520pt" height="284pt"
 viewBox="0.00 0.00 520.00 284.00" xmlns="http://www.w3.org/2000/svg" xmlns:xlink="http://www.w3.org/1999/xlink">
<g id="graph0" class="graph" transform="scale(1 1) rotate(0) translate(4 280)">
<title>dependencies</title>
<polygon fill="#ffffff" stroke="transparent" points="-4,4 -4,-280 516,-280 516,4 -4,4"/>
<text text-anchor="start" x="235.0091" y="-42.4" font-family="sans-serif" font-weight="bold" font-size="14.00" fill="#000000">Legend</text>
<polygon fill="#ffffb3" stroke="transparent" points="22,-10 22,-30 42,-30 42,-10 22,-10"/>
<text text-anchor="start" x="45.629" y="-15.4" font-family="sans-serif" font-size="14.00" fill="#000000"> &#160;Declarations</text>
<polygon fill="#8dd3c7" stroke="transparent" points="135,-10 135,-30 155,-30 155,-10 135,-10"/>
<text text-anchor="start" x="158.7251" y="-15.4" font-family="sans-serif" font-size="14.00" fill="#000000"> &#160;Module</text>
<polygon fill="#80b1d3" stroke="transparent" points="221,-10 221,-30 241,-30 241,-10 221,-10"/>
<text text-anchor="start" x="244.7812" y="-15.4" font-family="sans-serif" font-size="14.00" fill="#000000"> &#160;Bootstrap</text>
<polygon fill="#fdb462" stroke="transparent" points="318,-10 318,-30 338,-30 338,-10 318,-10"/>
<text text-anchor="start" x="341.6732" y="-15.4" font-family="sans-serif" font-size="14.00" fill="#000000"> &#160;Providers</text>
<polygon fill="#fb8072" stroke="transparent" points="414,-10 414,-30 434,-30 434,-10 414,-10"/>
<text text-anchor="start" x="437.7258" y="-15.4" font-family="sans-serif" font-size="14.00" fill="#000000"> &#160;Exports</text>
<g id="clust1" class="cluster">
<title>cluster_ShowcaseModule</title>
<polygon fill="none" stroke="#000000" stroke-dasharray="1,5" points="8,-70 8,-268 504,-268 504,-70 8,-70"/>
</g>
<g id="clust2" class="cluster">
<title>cluster_ShowcaseModule_declarations</title>
<polygon fill="none" stroke="#000000" points="174,-78 174,-130 496,-130 496,-78 174,-78"/>
</g>
<g id="clust5" class="cluster">
<title>cluster_ShowcaseModule_imports</title>
<polygon fill="none" stroke="#000000" points="16,-78 16,-130 166,-130 166,-78 16,-78"/>
</g>
<g id="clust7" class="cluster">
<title>cluster_ShowcaseModule_bootstrap</title>
<polygon fill="none" stroke="#000000" points="211,-208 211,-260 335,-260 335,-208 211,-208"/>
</g>
<!-- AppComponent -->
<g id="node1" class="node">
<title>AppComponent</title>
<polygon fill="#ffffb3" stroke="#000000" points="487.9399,-122 382.0601,-122 382.0601,-86 487.9399,-86 487.9399,-122"/>
<text text-anchor="middle" x="435" y="-99.8" font-family="Times,serif" font-size="14.00" fill="#000000">AppComponent</text>
</g>
<!-- ShowcaseModule -->
<g id="node3" class="node">
<title>ShowcaseModule</title>
<polygon fill="#8dd3c7" stroke="#000000" points="330.5284,-187 327.5284,-191 306.5284,-191 303.5284,-187 215.4716,-187 215.4716,-151 330.5284,-151 330.5284,-187"/>
<text text-anchor="middle" x="273" y="-164.8" font-family="Times,serif" font-size="14.00" fill="#000000">ShowcaseModule</text>
</g>
<!-- AppComponent&#45;&gt;ShowcaseModule -->
<g id="edge1" class="edge">
<title>AppComponent&#45;&gt;ShowcaseModule</title>
<path fill="none" stroke="#000000" d="M435,-122.1061C435,-141.3391 435,-169 435,-169 435,-169 340.5713,-169 340.5713,-169"/>
<polygon fill="#000000" stroke="#000000" points="340.5713,-165.5001 330.5713,-169 340.5712,-172.5001 340.5713,-165.5001"/>
</g>
<!-- SimpleTextEditorComponent -->
<g id="node2" class="node">
<title>SimpleTextEditorComponent</title>
<polygon fill="#ffffb3" stroke="#000000" points="363.6539,-122 182.3461,-122 182.3461,-86 363.6539,-86 363.6539,-122"/>
<text text-anchor="middle" x="273" y="-99.8" font-family="Times,serif" font-size="14.00" fill="#000000">SimpleTextEditorComponent</text>
</g>
<!-- SimpleTextEditorComponent&#45;&gt;ShowcaseModule -->
<g id="edge2" class="edge">
<title>SimpleTextEditorComponent&#45;&gt;ShowcaseModule</title>
<path fill="none" stroke="#000000" d="M273,-122.1061C273,-122.1061 273,-140.991 273,-140.991"/>
<polygon fill="#000000" stroke="#000000" points="269.5001,-140.9909 273,-150.991 276.5001,-140.991 269.5001,-140.9909"/>
</g>
<!-- AppComponent  -->
<g id="node5" class="node">
<title>AppComponent </title>
<polygon fill="#80b1d3" stroke="#000000" points="327.439,-252 218.561,-252 218.561,-216 327.439,-216 327.439,-252"/>
<text text-anchor="middle" x="273" y="-229.8" font-family="Times,serif" font-size="14.00" fill="#000000">AppComponent </text>
</g>
<!-- ShowcaseModule&#45;&gt;AppComponent  -->
<g id="edge4" class="edge">
<title>ShowcaseModule&#45;&gt;AppComponent </title>
<path fill="none" stroke="#000000" stroke-dasharray="1,5" d="M273,-187.1061C273,-187.1061 273,-205.991 273,-205.991"/>
<polygon fill="#000000" stroke="#000000" points="269.5001,-205.9909 273,-215.991 276.5001,-205.991 269.5001,-205.9909"/>
</g>
<!-- PropertyGridModule -->
<g id="node4" class="node">
<title>PropertyGridModule</title>
<polygon fill="#8dd3c7" stroke="#000000" points="157.9173,-122 154.9173,-126 133.9173,-126 130.9173,-122 24.0827,-122 24.0827,-86 157.9173,-86 157.9173,-122"/>
<text text-anchor="middle" x="91" y="-99.8" font-family="Times,serif" font-size="14.00" fill="#000000">PropertyGridModule</text>
</g>
<!-- PropertyGridModule&#45;&gt;ShowcaseModule -->
<g id="edge3" class="edge">
<title>PropertyGridModule&#45;&gt;ShowcaseModule</title>
<path fill="none" stroke="#000000" d="M91,-122.1061C91,-141.3391 91,-169 91,-169 91,-169 205.4141,-169 205.4141,-169"/>
<polygon fill="#000000" stroke="#000000" points="205.4141,-172.5001 215.4141,-169 205.414,-165.5001 205.4141,-172.5001"/>
</g>
</g>
</svg>
